# Rhino

mtllib NewObjectControllerTest1.mtl
usemtl diffuse_0_0_0_255
v -0.5 -0.5 0.5
v -0.5 0.5 0.5
v 0.5 -0.5 0.5
v 0.5 0.5 0.5
v -0.30684149265289307 0.12715740501880646 0.5
v -0.30684149265289307 0.46087521314620972 0.5
v -0.13923047482967377 0.46087521314620972 0.5
v -0.13923047482967377 0.12715740501880646 0.5
v -0.1196950376033783 -0.4054415225982666 0.5
v 0.2973315417766571 0.30498668551445007 0.5
v 0.2973315417766571 -0.4054415225982666 0.5
v 0.5 -0.5 0.5
v 0.5 0.5 0.5
v 0.5 -0.5 -0.5
v 0.5 0.5 -0.5
v 0.5 -0.16240306198596954 0.12501467764377594
v 0.5 0.17131474614143372 0.12501467764377594
v 0.5 0.17131474614143372 -0.042596351355314255
v 0.5 -0.16240306198596954 -0.042596351355314255
v 0.5 -0.5 -0.5
v 0.5 0.5 -0.5
v -0.5 -0.5 -0.5
v -0.5 0.5 -0.5
v -0.30684149265289307 0.46087521314620972 -0.5
v -0.30684149265289307 0.12715740501880646 -0.5
v -0.13923047482967377 0.12715740501880646 -0.5
v -0.13923047482967377 0.46087521314620972 -0.5
v 0.2973315417766571 0.30498668551445007 -0.5
v -0.1196950376033783 -0.4054415225982666 -0.5
v 0.2973315417766571 -0.4054415225982666 -0.5
v -0.5 -0.5 -0.5
v -0.5 0.5 -0.5
v -0.5 -0.5 0.5
v -0.5 0.5 0.5
v -0.5 0.17131474614143372 0.12501467764377594
v -0.5 -0.16240306198596954 0.12501467764377594
v -0.5 -0.16240306198596954 -0.042596351355314255
v -0.5 0.17131474614143372 -0.042596351355314255
v -0.5 -0.5 0.5
v -0.5 -0.5 -0.5
v 0.5 -0.5 0.5
v 0.5 -0.5 -0.5
v -0.5 0.5 0.5
v -0.5 0.5 -0.5
v 0.5 0.5 0.5
v 0.5 0.5 -0.5
v -0.30684149265289307 0.12715740501880646 0.5
v -0.30684149265289307 0.46087521314620972 -0.5
v -0.30684149265289307 0.12715740501880646 -0.5
v -0.30684149265289307 0.46087521314620972 0.5
v -0.30684149265289307 0.12715740501880646 0.12501467764377594
v -0.30684149265289307 0.17131474614143372 0.12501467764377594
v -0.30684149265289307 0.12715740501880646 -0.042596351355314255
v -0.30684149265289307 0.17131474614143372 -0.042596351355314255
v -0.13923047482967377 0.46087521314620972 -0.5
v -0.13923047482967377 0.46087521314620972 0.5
v -0.13923047482967377 0.12715740501880646 0.5
v -0.13923047482967377 0.12715740501880646 -0.5
v -0.13923047482967377 0.12715740501880646 -0.042596351355314255
v -0.13923047482967377 0.12715740501880646 0.12501467764377594
v -0.13923047482967377 0.17131474614143372 0.12501467764377594
v -0.13923047482967377 0.17131474614143372 -0.042596351355314255
v -0.30684149265289307 0.46087521314620972 0.5
v -0.30684149265289307 0.46087521314620972 -0.5
v -0.13923047482967377 0.46087521314620972 -0.5
v -0.13923047482967377 0.46087521314620972 0.5
v -0.30684149265289307 0.12715740501880646 0.5
v -0.30684149265289307 0.12715740501880646 0.12501467764377594
v -0.13923047482967377 0.12715740501880646 0.12501467764377594
v -0.13923047482967377 0.12715740501880646 0.5
v 0.022970322519540787 -0.16240306198596954 -0.042596351355314255
v -0.5 -0.16240306198596954 -0.042596351355314255
v -0.5 -0.16240306198596954 0.12501467764377594
v 0.022970322519540787 -0.16240306198596954 0.12501467764377594
v -0.13923047482967377 0.12715740501880646 -0.042596351355314255
v -0.30684149265289307 0.12715740501880646 -0.5
v -0.13923047482967377 0.12715740501880646 -0.5
v -0.30684149265289307 0.12715740501880646 -0.042596351355314255
v 0.5 -0.16240306198596954 0.12501467764377594
v 0.2973315417766571 -0.16240306198596954 0.12501467764377594
v 0.5 0.17131474614143372 0.12501467764377594
v 0.2973315417766571 0.17131474614143372 0.12501467764377594
v 0.2973315417766571 0.17131474614143372 -0.042596351355314255
v 0.2973315417766571 -0.16240306198596954 -0.042596351355314255
v 0.5 0.17131474614143372 -0.042596351355314255
v 0.5 -0.16240306198596954 -0.042596351355314255
v 0.5 0.17131474614143372 0.12501467764377594
v 0.2973315417766571 0.17131474614143372 -0.042596351355314255
v 0.5 0.17131474614143372 -0.042596351355314255
v 0.2973315417766571 0.17131474614143372 0.12501467764377594
v -0.30684149265289307 0.17131474614143372 -0.042596351355314255
v -0.5 0.17131474614143372 -0.042596351355314255
v -0.5 0.17131474614143372 0.12501467764377594
v -0.30684149265289307 0.17131474614143372 0.12501467764377594
v -0.1196950376033783 -0.4054415225982666 0.5
v -0.1196950376033783 -0.4054415225982666 -0.5
v 0.2973315417766571 0.30498668551445007 -0.5
v 0.022970322519540787 -0.16240306198596954 0.12501467764377594
v 0.022970322519540787 -0.16240306198596954 -0.042596351355314255
v 0.21886512637138367 0.17131474614143372 0.12501467764377594
v 0.21886512637138367 0.17131474614143372 -0.042596351355314255
v 0.2973315417766571 0.30498668551445007 0.5
v 0.2973315417766571 -0.4054415225982666 0.5
v 0.2973315417766571 -0.4054415225982666 -0.5
v -0.1196950376033783 -0.4054415225982666 -0.5
v -0.1196950376033783 -0.4054415225982666 0.5
v 0.2973315417766571 0.30498668551445007 0.5
v 0.2973315417766571 0.30498668551445007 -0.5
v 0.2973315417766571 -0.4054415225982666 -0.5
v 0.2973315417766571 -0.16240306198596954 -0.042596351355314255
v 0.2973315417766571 -0.16240306198596954 0.12501467764377594
v 0.2973315417766571 0.17131474614143372 0.12501467764377594
v 0.2973315417766571 0.17131474614143372 -0.042596351355314255
v 0.2973315417766571 -0.4054415225982666 0.5
v 0.5 -0.16240306198596954 0.12501467764377594
v 0.2973315417766571 -0.16240306198596954 0.12501467764377594
v 0.2973315417766571 -0.16240306198596954 -0.042596351355314255
v 0.5 -0.16240306198596954 -0.042596351355314255
v 0.21886512637138367 0.17131474614143372 0.12501467764377594
v -0.5 0.17131474614143372 0.12501467764377594
v -0.5 -0.16240306198596954 0.12501467764377594
v -0.30684149265289307 0.12715740501880646 0.12501467764377594
v -0.30684149265289307 0.17131474614143372 0.12501467764377594
v -0.13923047482967377 0.17131474614143372 0.12501467764377594
v -0.13923047482967377 0.12715740501880646 0.12501467764377594
v 0.022970322519540787 -0.16240306198596954 0.12501467764377594
v -0.5 -0.16240306198596954 -0.042596351355314255
v 0.21886512637138367 0.17131474614143372 -0.042596351355314255
v -0.30684149265289307 0.17131474614143372 -0.042596351355314255
v -0.30684149265289307 0.12715740501880646 -0.042596351355314255
v -0.13923047482967377 0.12715740501880646 -0.042596351355314255
v -0.13923047482967377 0.17131474614143372 -0.042596351355314255
v -0.5 0.17131474614143372 -0.042596351355314255
v 0.022970322519540787 -0.16240306198596954 -0.042596351355314255
v 0.21886512637138367 0.17131474614143372 0.12501467764377594
v -0.13923047482967377 0.17131474614143372 0.12501467764377594
v -0.13923047482967377 0.17131474614143372 -0.042596351355314255
v 0.21886512637138367 0.17131474614143372 -0.042596351355314255
vt 0.89285463094711304 0.5
vt 0.63279843330383301 0.5
vt 0.89285463094711304 0.7615211009979248
vt 0.63279843330383301 0.7615211009979248
vt 0.72975850105285645 0.55051499605178833
vt 0.64297306537628174 0.55051499605178833
vt 0.64297306537628174 0.59434884786605835
vt 0.72975850105285645 0.59434884786605835
vt 0.86826413869857788 0.59945774078369141
vt 0.68351286649703979 0.70851898193359375
vt 0.86826413869857788 0.70851898193359375
vt 0.89285463094711304 0
vt 0.63279843330383301 0
vt 0.89285463094711304 0.26152107119560242
vt 0.63279843330383301 0.26152107119560242
vt 0.80506044626235962 0.098066560924053192
vt 0.71827507019042969 0.098066560924053192
vt 0.71827507019042969 0.14190037548542023
vt 0.80506044626235962 0.14190037548542023
vt 0.26152107119560242 0.17373239994049072
vt 0 0.17373239994049072
vt 0.26152107119560242 0.43525347113609314
vt 0 0.43525347113609314
vt 0.010231956839561462 0.38473844528198242
vt 0.097506202757358551 0.38473844528198242
vt 0.097506202757358551 0.34090465307235718
vt 0.010231956839561462 0.34090465307235718
vt 0.051000084728002548 0.2267344743013382
vt 0.23679204285144806 0.33579573035240173
vt 0.23679204285144806 0.2267344743013382
vt 0.63133358955383301 0.7384788990020752
vt 0.37127736210823059 0.7384788990020752
vt 0.63133358955383301 0.99853515625
vt 0.37127736210823059 0.99853515625
vt 0.45675399899482727 0.90101790428161621
vt 0.54353940486907959 0.90101790428161621
vt 0.54353940486907959 0.8574296236038208
vt 0.45675399899482727 0.8574296236038208
vt 0.63133358955383301 0.47695785760879517
vt 0.37127736210823059 0.47695785760879517
vt 0.63133358955383301 0.7370140552520752
vt 0.37127736210823059 0.7370140552520752
vt 0.57792031764984131 0.21543677151203156
vt 0.3163992166519165 0.21543677151203156
vt 0.57792031764984131 0.47549301385879517
vt 0.3163992166519165 0.47549301385879517
vt 0 0.7384788990020752
vt 0.085809394717216492 0.99853515625
vt 0 0.99853515625
vt 0.085809394717216492 0.7384788990020752
vt 0 0.83599621057510376
vt 0.011354247108101845 0.83599621057510376
vt 0 0.87958449125289917
vt 0.011354247108101845 0.87958449125289917
vt 0.17308363318443298 0.7384788990020752
vt 0.17308363318443298 0.99853515625
vt 0.087274238467216492 0.99853515625
vt 0.087274238467216492 0.7384788990020752
vt 0.087274238467216492 0.8574296236038208
vt 0.087274238467216492 0.90101790428161621
vt 0.098628483712673187 0.90101790428161621
vt 0.098628483712673187 0.8574296236038208
vt 0.26075127720832825 0.7384788990020752
vt 0.26075127720832825 0.99853515625
vt 0.21838229894638062 0.99853515625
vt 0.21838229894638062 0.7384788990020752
vt 0.17566758394241333 0
vt 0.17566758394241333 0.098066568374633789
vt 0.13183377683162689 0.098066568374633789
vt 0.13183377683162689 0
vt 0.17454847693443298 0.7384788990020752
vt 0.17454847693443298 0.87524670362472534
vt 0.21691745519638062 0.87524670362472534
vt 0.21691745519638062 0.7384788990020752
vt 0.13183377683162689 0.16674228012561798
vt 0.25145447254180908 0.12290846556425095
vt 0.25145447254180908 0.16674228012561798
vt 0.13183377683162689 0.12290846556425095
vt 0.19354018568992615 0
vt 0.19354018568992615 0.053002074360847473
vt 0.28081443905830383 0
vt 0.28081443905830383 0.053002074360847473
vt 0.28081443905830383 0.061454232782125473
vt 0.19354018568992615 0.061454232782125473
vt 0.28081443905830383 0.11445630341768265
vt 0.19354018568992615 0.11445630341768265
vt 0 0.065459556877613068
vt 0.053002074360847473 0.1092933788895607
vt 0 0.1092933788895607
vt 0.053002074360847473 0.065459556877613068
vt 0 0
vt 0 0.050515018403530121
vt 0.043833818286657333 0.050515018403530121
vt 0.043833818286657333 0
vt 0.57792031764984131 0
vt 0.3163992166519165 0
vt 0.3163992166519165 0.21397192776203156
vt 0.47985371947288513 0.07320009171962738
vt 0.4360198974609375 0.07320009171962738
vt 0.47985371947288513 0.17371164262294769
vt 0.4360198974609375 0.17371164262294769
vt 0.57792031764984131 0.21397192776203156
vt 0.26221612095832825 0.7384788990020752
vt 0.26221612095832825 0.99853515625
vt 0.36981251835823059 0.99853515625
vt 0.36981251835823059 0.7384788990020752
vt 0.17984631657600403 0.47695785760879517
vt 0.17984631657600403 0.7370140552520752
vt 0.36563825607299805 0.7370140552520752
vt 0.30207857489585876 0.61806339025497437
vt 0.30207857489585876 0.57447510957717896
vt 0.21480433642864227 0.57447510957717896
vt 0.21480433642864227 0.61806339025497437
vt 0.36563825607299805 0.47695785760879517
vt 0.10975070297718048 0
vt 0.10975070297718048 0.053002074360847473
vt 0.065916888415813446 0.053002074360847473
vt 0.065916888415813446 0
vt 0.087274238467216492 0.47695785760879517
vt 0.087274238467216492 0.66495621204376221
vt 0 0.66495621204376221
vt 0.075726166367530823 0.61444121599197388
vt 0.087274238467216492 0.61444121599197388
vt 0.087274238467216492 0.57060742378234863
vt 0.075726166367530823 0.57060742378234863
vt 0 0.52818846702575684
vt 0.089923158288002014 0.47695785760879517
vt 0.17719739675521851 0.66495621204376221
vt 0.17719739675521851 0.5274728536605835
vt 0.16564932465553284 0.5274728536605835
vt 0.16564932465553284 0.57130670547485352
vt 0.17719739675521851 0.57130670547485352
vt 0.17719739675521851 0.47695785760879517
vt 0.089923158288002014 0.61372560262680054
vt 0 0.11959598213434219
vt 0.093649543821811676 0.11959598213434219
vt 0.093649543821811676 0.16342979669570923
vt 0 0.16342979669570923
vn 0 0 1
vn 0 0 1
vn 0 0 1
vn 0 0 1
vn 0 0 1
vn 0 0 1
vn 0 0 1
vn 0 0 1
vn 0 0 1
vn 0 0 1
vn 0 0 1
vn 1 0 0
vn 1 0 0
vn 1 0 0
vn 1 0 0
vn 1 0 0
vn 1 0 0
vn 1 0 0
vn 1 0 0
vn 0 0 -1
vn 0 0 -1
vn 0 0 -1
vn 0 0 -1
vn 0 0 -1
vn 0 0 -1
vn 0 0 -1
vn 0 0 -1
vn 0 0 -1
vn 0 0 -1
vn 0 0 -1
vn -1 0 0
vn -1 0 0
vn -1 0 0
vn -1 0 0
vn -1 0 0
vn -1 0 0
vn -1 0 0
vn -1 0 0
vn 0 -1 0
vn 0 -1 0
vn 0 -1 0
vn 0 -1 0
vn 0 1 0
vn 0 1 0
vn 0 1 0
vn 0 1 0
vn 1 0 0
vn 1 0 0
vn 1 0 0
vn 1 0 0
vn 1 0 0
vn 1 0 0
vn 1 0 0
vn 1 0 0
vn -1 0 0
vn -1 0 0
vn -1 0 0
vn -1 0 0
vn -1 0 0
vn -1 0 0
vn -1 0 0
vn -1 0 0
vn 0 -1 0
vn 0 -1 0
vn 0 -1 0
vn 0 -1 0
vn 0 1 0
vn 0 1 0
vn 0 1 0
vn 0 1 0
vn 0 1 0
vn 0 1 0
vn 0 1 0
vn 0 1 0
vn 0 1 0
vn 0 1 0
vn 0 1 0
vn 0 1 0
vn 0 0 -1
vn 0 0 -1
vn 0 0 -1
vn 0 0 -1
vn 0 0 1
vn 0 0 1
vn 0 0 1
vn 0 0 1
vn 0 -1 0
vn 0 -1 0
vn 0 -1 0
vn 0 -1 0
vn 0 -1 0
vn 0 -1 0
vn 0 -1 0
vn 0 -1 0
vn 0.86239665746688843 -0.50623315572738647 0
vn 0.86239665746688843 -0.50623315572738647 0
vn 0.86239665746688843 -0.50623315572738647 0
vn 0.86239665746688843 -0.50623315572738647 0
vn 0.86239665746688843 -0.50623315572738647 0
vn 0.86239665746688843 -0.50623315572738647 0
vn 0.86239665746688843 -0.50623315572738647 0
vn 0.86239665746688843 -0.50623315572738647 0
vn 0 1 0
vn 0 1 0
vn 0 1 0
vn 0 1 0
vn -1 0 0
vn -1 0 0
vn -1 0 0
vn -1 0 0
vn -1 0 0
vn -1 0 0
vn -1 0 0
vn -1 0 0
vn 0 1 0
vn 0 1 0
vn 0 1 0
vn 0 1 0
vn 0 0 -1
vn 0 0 -1
vn 0 0 -1
vn 0 0 -1
vn 0 0 -1
vn 0 0 -1
vn 0 0 -1
vn 0 0 -1
vn 0 0 1
vn 0 0 1
vn 0 0 1
vn 0 0 1
vn 0 0 1
vn 0 0 1
vn 0 0 1
vn 0 0 1
vn 0 -1 0
vn 0 -1 0
vn 0 -1 0
vn 0 -1 0
f 2/2/2 1/1/1 5/5/5
f 9/9/9 8/8/8 5/5/5
f 2/2/2 5/5/5 6/6/6
f 7/7/7 2/2/2 6/6/6
f 9/9/9 5/5/5 1/1/1
f 11/11/11 9/9/9 3/3/3
f 1/1/1 3/3/3 9/9/9
f 10/10/10 11/11/11 3/3/3
f 9/9/9 10/10/10 8/8/8
f 4/4/4 7/7/7 10/10/10
f 10/10/10 7/7/7 8/8/8
f 3/3/3 4/4/4 10/10/10
f 2/2/2 7/7/7 4/4/4
f 13/13/13 12/12/12 16/16/16 17/17/17
f 19/19/19 16/16/16 12/12/12
f 18/18/18 13/13/13 17/17/17
f 15/15/15 19/19/19 14/14/14
f 12/12/12 14/14/14 19/19/19
f 13/13/13 18/18/18 15/15/15
f 19/19/19 15/15/15 18/18/18
f 30/30/30 28/28/28 21/21/21 20/20/20
f 29/29/29 30/30/30 20/20/20
f 26/26/26 28/28/28 29/29/29
f 27/27/27 21/21/21 28/28/28
f 29/29/29 20/20/20 22/22/22
f 26/26/26 29/29/29 25/25/25
f 22/22/22 25/25/25 29/29/29
f 23/23/23 25/25/25 22/22/22
f 23/23/23 27/27/27 24/24/24
f 25/25/25 23/23/23 24/24/24
f 21/21/21 27/27/27 23/23/23
f 28/28/28 26/26/26 27/27/27
f 32/32/32 31/31/31 37/37/37 38/38/38
f 31/31/31 33/33/33 36/36/36 37/37/37
f 34/34/34 32/32/32 38/38/38
f 34/34/34 36/36/36 33/33/33
f 38/38/38 35/35/35 34/34/34
f 36/36/36 34/34/34 35/35/35
f 40/40/40 42/42/42 41/41/41 39/39/39
f 44/44/44 43/43/43 45/45/45 46/46/46
f 47/47/47 52/52/52 50/50/50
f 54/54/54 50/50/50 52/52/52
f 52/52/52 47/47/47 51/51/51
f 49/49/49 48/48/48 54/54/54
f 50/50/50 54/54/54 48/48/48
f 54/54/54 53/53/53 49/49/49
f 58/58/58 62/62/62 55/55/55
f 55/55/55 62/62/62 61/61/61 56/56/56
f 62/62/62 58/58/58 59/59/59
f 57/57/57 56/56/56 61/61/61
f 61/61/61 60/60/60 57/57/57
f 66/66/66 63/63/63 64/64/64 65/65/65
f 70/70/70 69/69/69 68/68/68 67/67/67
f 71/71/71 72/72/72 73/73/73 74/74/74
f 75/75/75 77/77/77 76/76/76 78/78/78
f 79/79/79 80/80/80 82/82/82 81/81/81
f 84/84/84 86/86/86 85/85/85 83/83/83
f 89/89/89 87/87/87 90/90/90 88/88/88
f 91/91/91 94/94/94 93/93/93 92/92/92
f 99/99/99 98/98/98 95/95/95
f 102/102/102 95/95/95 98/98/98
f 97/97/97 99/99/99 96/96/96
f 95/95/95 96/96/96 99/99/99
f 101/101/101 102/102/102 100/100/100
f 98/98/98 100/100/100 102/102/102
f 99/99/99 97/97/97 101/101/101
f 102/102/102 101/101/101 97/97/97
f 104/104/104 105/105/105 106/106/106 103/103/103
f 113/113/113 112/112/112 107/107/107
f 111/111/111 107/107/107 112/112/112
f 110/110/110 113/113/113 108/108/108
f 107/107/107 108/108/108 113/113/113
f 110/110/110 114/114/114 111/111/111
f 107/107/107 111/111/111 114/114/114
f 108/108/108 109/109/109 110/110/110
f 114/114/114 110/110/110 109/109/109
f 118/118/118 117/117/117 116/116/116 115/115/115
f 125/125/125 124/124/124 119/119/119
f 122/122/122 125/125/125 126/126/126
f 119/119/119 126/126/126 125/125/125
f 122/122/122 120/120/120 123/123/123
f 126/126/126 121/121/121 122/122/122
f 120/120/120 122/122/122 121/121/121
f 130/130/130 129/129/129 133/133/133
f 134/134/134 131/131/131 130/130/130 127/127/127
f 133/133/133 127/127/127 130/130/130
f 131/131/131 128/128/128 132/132/132
f 128/128/128 131/131/131 134/134/134
f 138/138/138 135/135/135 136/136/136 137/137/137
