# Rhino

mtllib DrilledSquare.mtl
usemtl diffuse_0_0_0_255
v -5 -5 5
v -5 5 5
v 5 -5 5
v 5 5 5
v 5 -5 5
v 5 5 5
v 5 -5 -5
v 5 5 -5
v 5 -5 -5
v 5 5 -5
v -5 -5 -5
v -5 5 -5
v -5 -5 -5
v -5 5 -5
v -5 -5 5
v -5 5 5
v -5 -5 5
v -5 -5 -5
v 5 -5 5
v 5 -5 -5
v -5 5 5
v -5 5 -5
v 5 5 5
v 5 5 -5
v 0.5 5 0.5
v -0.5 5 0.5
v 0.5 5 -0.5
v -0.5 5 -0.5
v -0.5 0 0.5
v -0.5 5 0.5
v 0.5 0 0.5
v 0.5 5 0.5
v 0.5 0 0.5
v 0.5 5 0.5
v 0.5 0 -0.5
v 0.5 5 -0.5
v 0.5 0 -0.5
v 0.5 5 -0.5
v -0.5 0 -0.5
v -0.5 5 -0.5
v -0.5 0 -0.5
v -0.5 5 -0.5
v -0.5 0 0.5
v -0.5 5 0.5
v -0.5 0 0.5
v -0.5 0 -0.5
v 0.5 0 0.5
v 0.5 0 -0.5
vt 0.190476194024086 0.3333333432674408
vt 0.190476194024086 0.66520184278488159
vt 0.52380955219268799 0.3333333432674408
vt 0.52380955219268799 0.66520184278488159
vt 0.3333333432674408 0.66666668653488159
vt 0.3333333432674408 0.99853515625
vt 0.66520184278488159 0.66666668653488159
vt 0.66520184278488159 0.99853515625
vt 0 0.66666668653488159
vt 0 0.99853515625
vt 0.3318684995174408 0.66666668653488159
vt 0.3318684995174408 0.99853515625
vt 0.99853515625 0.5
vt 0.66666668653488159 0.5
vt 0.99853515625 0.83333331346511841
vt 0.66666668653488159 0.83333331346511841
vt 0.99853515625 0
vt 0.66666668653488159 0
vt 0.99853515625 0.3333333432674408
vt 0.66666668653488159 0.3333333432674408
vt 0.060606062412261963 0
vt 0.060606062412261963 0.3318684995174408
vt 0.39393940567970276 0
vt 0.39393940567970276 0.3318684995174408
vt 0.24393939971923828 0.14934082329273224
vt 0.21060605347156525 0.14934082329273224
vt 0.24393939971923828 0.18252767622470856
vt 0.21060605347156525 0.18252767622470856
vt 0 0
vt 0 0.1666666716337204
vt 0.033333335071802139 0
vt 0.033333335071802139 0.1666666716337204
vt 0.0476190485060215 0.3333333432674408
vt 0.0476190485060215 0.5
vt 0.080952383577823639 0.3333333432674408
vt 0.080952383577823639 0.5
vt 0 0.3333333432674408
vt 0 0.5
vt 0.033333335071802139 0.3333333432674408
vt 0.033333335071802139 0.5
vt 0.1428571492433548 0.3333333432674408
vt 0.1428571492433548 0.5
vt 0.17619048058986664 0.3333333432674408
vt 0.17619048058986664 0.5
vt 0.095238097012042999 0.3333333432674408
vt 0.095238097012042999 0.36666667461395264
vt 0.12857143580913544 0.3333333432674408
vt 0.12857143580913544 0.36666667461395264
vn 0 0 1
vn 0 0 1
vn 0 0 1
vn 0 0 1
vn 1 0 0
vn 1 0 0
vn 1 0 0
vn 1 0 0
vn 0 0 -1
vn 0 0 -1
vn 0 0 -1
vn 0 0 -1
vn -1 0 0
vn -1 0 0
vn -1 0 0
vn -1 0 0
vn 0 -1 0
vn 0 -1 0
vn 0 -1 0
vn 0 -1 0
vn 0 1 0
vn 0 1 0
vn 0 1 0
vn 0 1 0
vn 0 1 0
vn 0 1 0
vn 0 1 0
vn 0 1 0
vn 0 0 -1
vn 0 0 -1
vn 0 0 -1
vn 0 0 -1
vn -1 0 0
vn -1 0 0
vn -1 0 0
vn -1 0 0
vn 0 0 1
vn 0 0 1
vn 0 0 1
vn 0 0 1
vn 1 0 0
vn 1 0 0
vn 1 0 0
vn 1 0 0
vn 0 1 0
vn 0 1 0
vn 0 1 0
vn 0 1 0
f 2/2/2 1/1/1 3/3/3 4/4/4
f 6/6/6 5/5/5 7/7/7 8/8/8
f 10/10/10 9/9/9 11/11/11 12/12/12
f 14/14/14 13/13/13 15/15/15 16/16/16
f 18/18/18 20/20/20 19/19/19 17/17/17
f 28/28/28 21/21/21 26/26/26
f 21/21/21 23/23/23 25/25/25 26/26/26
f 27/27/27 22/22/22 28/28/28
f 21/21/21 28/28/28 22/22/22
f 23/23/23 24/24/24 27/27/27 25/25/25
f 22/22/22 27/27/27 24/24/24
f 30/30/30 32/32/32 31/31/31 29/29/29
f 34/34/34 36/36/36 35/35/35 33/33/33
f 38/38/38 40/40/40 39/39/39 37/37/37
f 42/42/42 44/44/44 43/43/43 41/41/41
f 46/46/46 45/45/45 47/47/47 48/48/48
